<svg width="40" height="40" viewBox="0 0 40 40" fill="none" xmlns="http://www.w3.org/2000/svg">
<g clip-path="url(#clip0)">
<path d="M32.5656 16.5459V35.1813H25.6141V27.1216C25.6141 26.415 25.0483 25.8423 24.3502 25.8423H15.4607C14.7626 25.8423 14.1969 26.415 14.1969 27.1216V35.1813H7.28753V16.5459H4.75977V36.4606C4.75977 37.1672 5.3256 37.7399 6.02365 37.7399H15.4608C16.159 37.7399 16.7247 37.1672 16.7247 36.4606V28.401H23.0863V36.4607C23.0863 37.1673 23.6522 37.74 24.3502 37.74H33.8295C34.5277 37.74 35.0934 37.1672 35.0934 36.4607V16.5459H32.5656Z" fill="white"/>
<path d="M39.1179 19.9611L20.7912 2.60509C20.3088 2.14751 19.5589 2.14454 19.0723 2.59697L0.408681 19.9531C-0.105285 20.4311 -0.139015 21.2401 0.333273 21.7603C0.582267 22.0354 0.922648 22.1744 1.26434 22.1744C1.56976 22.1744 1.87648 22.0627 2.11915 21.837L19.92 5.28353L37.3909 21.8294C37.9015 22.3125 38.7003 22.2849 39.1772 21.7692C39.6538 21.2532 39.6276 20.4438 39.1179 19.9611Z" fill="white"/>
</g>
<defs>
<clipPath id="clip0">
<rect width="39.5181" height="40" fill="white"/>
</clipPath>
</defs>
</svg>
