<svg width="40" height="40" viewBox="0 0 40 40" fill="none" xmlns="http://www.w3.org/2000/svg">
<path d="M20 0C8.97203 0 0 8.9719 0 19.9998C0 31.0279 8.97203 40 20 40C31.028 40 40 31.0279 40 19.9998C40 8.9719 31.0281 0 20 0ZM20 37.69C10.2458 37.69 2.31 29.7542 2.31 19.9998C2.31 10.2457 10.2458 2.31 20 2.31C29.7543 2.31 37.69 10.2457 37.69 19.9999C37.69 29.7542 29.7543 37.69 20 37.69Z" fill="white"/>
<path d="M31.0111 9.4599C30.709 8.89787 30.0088 8.68748 29.4469 8.98951L16.4471 15.9796C16.2475 16.0869 16.0839 16.2504 15.9767 16.45L8.98944 29.447C8.74225 29.9068 8.83852 30.4593 9.18963 30.8104C9.26748 30.8884 9.35787 30.9563 9.46002 31.0111C9.80728 31.1978 10.2075 31.1882 10.5337 31.0212L10.5339 31.0215L10.5388 31.0189C10.5436 31.0164 10.5482 31.0138 10.5528 31.0113L23.559 24.0264C23.7587 23.9192 23.9222 23.7557 24.0296 23.556L30.9889 10.5912C31.0041 10.565 31.0187 10.5385 31.0317 10.5113L31.0411 10.4939L31.04 10.4935C31.1879 10.1747 31.1903 9.79317 31.0111 9.4599ZM12.8368 27.169L17.2769 18.9102L21.0951 22.7285L12.8368 27.169ZM22.7294 21.0958L18.9111 17.2775L27.1693 12.837" fill="white"/>
</svg>
