<svg width="41" height="40" viewBox="0 0 41 40" fill="none" xmlns="http://www.w3.org/2000/svg">
<g clip-path="url(#clip0)">
<path d="M36.692 5H3.79576C1.70265 5 0 6.68213 0 8.75003V31.25C0 33.3179 1.70265 35 3.79576 35H36.692C38.7852 35 40.4878 33.3179 40.4878 31.25V8.75003C40.4878 6.68213 38.7852 5 36.692 5V5ZM36.692 7.49999C36.8639 7.49999 37.0275 7.53523 37.177 7.59676L20.2439 22.096L3.31072 7.59676C3.46023 7.53531 3.62377 7.49999 3.79567 7.49999H36.692ZM36.692 32.5H3.79576C3.09766 32.5 2.53048 31.9397 2.53048 31.2499V10.238L19.4148 24.6948C19.6533 24.8986 19.9486 25 20.2439 25C20.5392 25 20.8345 24.8987 21.073 24.6948L37.9573 10.238V31.25C37.9572 31.9397 37.3901 32.5 36.692 32.5V32.5Z" fill="white"/>
</g>
<defs>
<clipPath id="clip0">
<rect width="40.4878" height="40" fill="white"/>
</clipPath>
</defs>
</svg>
