<svg width="40" height="40" viewBox="0 0 40 40" fill="none" xmlns="http://www.w3.org/2000/svg">
<g clip-path="url(#clip0)">
<path d="M39.8986 34.2752C39.7227 33.4304 38.8954 32.8881 38.0504 33.064C37.2055 33.2398 36.6632 34.0673 36.8392 34.9121C36.9405 35.3988 36.8198 35.8975 36.5083 36.2808C36.3278 36.5027 35.9254 36.875 35.2583 36.875H4.74161C4.07458 36.875 3.67216 36.5027 3.49169 36.2808C3.18005 35.8976 3.05942 35.3988 3.16075 34.9121C4.78231 27.1234 11.6522 21.4339 19.5858 21.242C19.7232 21.2473 19.8612 21.25 20 21.25C20.1392 21.25 20.2778 21.2473 20.4157 21.242C26.0042 21.376 31.1695 24.2066 34.2975 28.8716C34.7781 29.5884 35.7486 29.7798 36.4655 29.2993C37.1822 28.8188 37.3737 27.8481 36.8931 27.1314C34.3293 23.3077 30.6064 20.5272 26.3615 19.1301C28.9483 17.1903 30.625 14.0998 30.625 10.625C30.625 4.76641 25.8586 0 20 0C14.1413 0 9.37497 4.76641 9.37497 10.625C9.37497 14.1019 11.0537 17.1941 13.6432 19.1337C11.2707 19.9148 9.0445 21.1302 7.09606 22.7328C3.52325 25.6716 1.03911 29.7708 0.101376 34.2752C-0.19253 35.6866 0.159579 37.1363 1.06724 38.2524C1.97044 39.363 3.30974 40 4.74161 40H35.2583C36.6902 40 38.0295 39.363 38.9326 38.2524C39.8404 37.1363 40.1925 35.6866 39.8986 34.2752ZM12.5 10.625C12.5 6.48945 15.8644 3.125 20 3.125C24.1355 3.125 27.5 6.48945 27.5 10.625C27.5 14.6332 24.3394 17.9171 20.3796 18.1155C20.2533 18.1131 20.1267 18.112 20 18.112C19.8739 18.112 19.7478 18.1132 19.6218 18.1155C15.6613 17.918 12.5 14.6338 12.5 10.625Z" fill="white"/>
</g>
<defs>
<clipPath id="clip0">
<rect width="40" height="40" fill="white"/>
</clipPath>
</defs>
</svg>
