<svg width="25" height="25" viewBox="0 0 25 25" fill="none" xmlns="http://www.w3.org/2000/svg">
<g clip-path="url(#clip0)">
<path d="M12.2582 9.34473C10.8946 9.34473 9.78906 10.4502 9.78906 11.8138C9.78906 13.1775 10.8945 14.2829 12.2582 14.2829C13.6218 14.2829 14.7273 13.1775 14.7273 11.8138C14.7273 10.4502 13.6218 9.34473 12.2582 9.34473ZM12.2582 13.1071C11.5439 13.1071 10.9648 12.5281 10.9648 11.8138C10.9648 11.0995 11.5439 10.5204 12.2582 10.5204C12.9725 10.5204 13.5515 11.0995 13.5515 11.8138C13.5515 12.5281 12.9725 13.1071 12.2582 13.1071Z" fill="#6C757D"/>
<path d="M22.1051 3.70078L6.05598 1.8784C5.4331 1.78985 4.80201 1.97168 4.32176 2.37812C3.84157 2.75046 3.53376 3.30239 3.46934 3.90659L3.17543 6.3169H2.26415C0.970805 6.3169 0.000794356 7.46324 0.000794356 8.75658V20.7787C-0.0317813 22.012 0.941605 23.0383 2.17498 23.0708C2.20468 23.0716 2.23445 23.0718 2.26415 23.0714H18.4014C19.6948 23.0714 20.8705 22.072 20.8705 20.7787V20.3084C21.2715 20.2309 21.6519 20.0707 21.9875 19.8381C22.4637 19.4371 22.7687 18.8693 22.8399 18.2508L24.192 6.3169C24.3299 5.02057 23.3996 3.85443 22.1051 3.70078ZM19.6948 20.7787C19.6948 21.4253 19.0481 21.8956 18.4014 21.8956H2.26415C1.67999 21.9128 1.19253 21.4531 1.17537 20.869C1.17447 20.8389 1.17487 20.8088 1.17655 20.7787V18.6035L5.73264 15.2526C6.27996 14.8324 7.05086 14.8698 7.55507 15.3408L10.759 18.1626C11.2456 18.5711 11.858 18.7995 12.4933 18.8093C12.99 18.8154 13.4785 18.6831 13.9042 18.4272L19.6948 15.0763V20.7787H19.6948ZM19.6948 13.6947L13.2869 17.4278C12.7366 17.7538 12.0402 17.6947 11.5526 17.2808L8.31928 14.4296C7.39259 13.6333 6.03814 13.5845 5.05654 14.312L1.17655 17.1338V8.75658C1.17655 8.10991 1.61748 7.49266 2.26415 7.49266H18.4014C19.0923 7.5213 19.6502 8.06659 19.6948 8.75658V13.6947V13.6947ZM23.0174 6.15819C23.017 6.16207 23.0167 6.16601 23.0162 6.16989L21.6347 18.1038C21.6371 18.4133 21.496 18.7063 21.2526 18.8974C21.135 19.015 20.8705 19.0738 20.8705 19.1326V8.75658C20.824 7.41749 19.7409 6.34723 18.4013 6.3169H4.35113L4.61567 4.02417C4.67306 3.72728 4.82829 3.45824 5.0566 3.25991C5.31439 3.08168 5.62608 2.99858 5.93845 3.02474L21.9582 4.87654C22.6045 4.93792 23.0788 5.51174 23.0174 6.15819Z" fill="#6C757D"/>
</g>
<defs>
<clipPath id="clip0">
<rect width="24.2055" height="24.2055" fill="white" transform="translate(0 0.361328)"/>
</clipPath>
</defs>
</svg>
