<svg width="185" height="185" viewBox="0 0 185 185" fill="none" xmlns="http://www.w3.org/2000/svg">
<g clip-path="url(#clip0)">
<path d="M41.4069 181.258C39.3801 181.258 37.3673 180.626 35.6495 179.384C32.4497 177.065 30.955 173.079 31.8258 169.233L43.7274 116.806L3.36488 81.4093C0.39796 78.8192 -0.735454 74.7175 0.482648 70.9644C1.70075 67.2183 5.01489 64.5662 8.93879 64.2034L62.3433 59.355L83.4576 9.94352C85.0144 6.31321 88.56 3.96875 92.4995 3.96875C96.4389 3.96875 99.9845 6.31321 101.541 9.93505L122.656 59.355L176.052 64.2034C179.984 64.5577 183.298 67.2183 184.516 70.9644C185.734 74.7104 184.608 78.8192 181.641 81.4093L141.279 116.799L153.18 169.224C154.052 173.079 152.556 177.065 149.358 179.377C146.167 181.689 141.911 181.867 138.55 179.847L92.4995 152.327L46.4487 179.862C44.8919 180.787 43.1572 181.258 41.4069 181.258ZM92.4995 140.472C72.5723 98.8347 121.097 121.841 122.656 122.765L141.002 167.861L92.4995 111.069C91.6978 107.548 128.722 75.5034 138.55 81.4093L170.996 75.3738L99.1139 116.635C95.4836 116.303 113.821 68.1809 112.403 64.8357L143.004 105.713L97.5413 122.765L57.5636 104.265L72.5723 64.8428C71.1693 68.1654 105.163 123.664 101.541 123.996L59.0744 134.327C61.8041 136.717 47.2575 98.2009 46.4487 101.731L92.4995 98.8347L104.447 136.486C106.004 135.562 90.7492 140.472 92.4995 140.472ZM61.9354 60.3106C61.9354 60.3106 61.9354 60.319 61.9269 60.3261L61.9354 60.3106ZM123.048 60.288L123.056 60.3035C123.056 60.295 123.056 60.295 123.048 60.288Z" fill="#F2BA5B"/>
</g>
<defs>
<clipPath id="clip0">
<rect width="185" height="185" fill="white"/>
</clipPath>
</defs>
</svg>
