<svg width="25" height="25" viewBox="0 0 25 25" fill="none" xmlns="http://www.w3.org/2000/svg">
<g clip-path="url(#clip0)">
<path d="M3.04369 8.71124C3.32059 8.98813 3.76962 8.98818 4.04657 8.71124L4.9634 7.7944L5.88028 8.71128C6.15718 8.98818 6.60621 8.98823 6.88316 8.71128C7.1601 8.43434 7.1601 7.98535 6.88316 7.70841L5.96628 6.79153L6.88316 5.87465C7.1601 5.5977 7.1601 5.14872 6.88316 4.87177C6.60626 4.59483 6.15723 4.59483 5.88028 4.87177L4.9634 5.78865L4.04652 4.87182C3.76962 4.59487 3.32059 4.59487 3.04365 4.87182C2.7667 5.14876 2.7667 5.59775 3.04365 5.87469L3.96053 6.79153L3.04365 7.70841C2.76675 7.98531 2.76675 8.43434 3.04369 8.71124Z" fill="#6C757D"/>
<path d="M6.23584 16.572L4.37343 18.4343L3.69303 17.7539C3.41608 17.4769 2.9671 17.4769 2.69015 17.7538C2.41321 18.0307 2.41316 18.4797 2.69011 18.7567L3.87197 19.9387C4.00496 20.0717 4.18532 20.1464 4.37343 20.1464C4.5615 20.1464 4.74186 20.0717 4.87485 19.9387L7.23872 17.5748C7.51566 17.2979 7.51566 16.8489 7.23872 16.5719C6.96177 16.295 6.51279 16.295 6.23584 16.572V16.572Z" fill="#6C757D"/>
<path d="M0.709147 23.1019H17.8232C18.2149 23.1019 18.5324 22.7844 18.5324 22.3927V13.883C18.5324 13.4913 18.2149 13.1738 17.8232 13.1738H0.709147C0.317509 13.1738 0 13.4913 0 13.883V22.3927C0 22.7844 0.317509 23.1019 0.709147 23.1019ZM9.92805 14.5921H17.1141V21.6836H9.92805V14.5921ZM1.41829 14.5921H8.50976V21.6836H1.41829V14.5921Z" fill="#6C757D"/>
<path d="M23.4964 1.82715H0.709147C0.317509 1.82715 0 2.14466 0 2.5363V11.0461C0 11.4377 0.317509 11.7552 0.709147 11.7552H23.4964C23.888 11.7552 24.2055 11.4377 24.2055 11.0461V2.5363C24.2055 2.14466 23.888 1.82715 23.4964 1.82715ZM8.50976 10.3369H1.41829V3.24544H8.50976V10.3369ZM22.7872 10.3369H9.92805V3.24544H22.7872V10.3369Z" fill="#6C757D"/>
</g>
<defs>
<clipPath id="clip0">
<rect width="24.2055" height="24.2055" fill="white" transform="translate(0 0.361328)"/>
</clipPath>
</defs>
</svg>
