<svg width="51" height="50" viewBox="0 0 51 50" fill="none" xmlns="http://www.w3.org/2000/svg">
<g clip-path="url(#clip0)">
<path d="M36.3135 4.3037C32.0854 4.28141 28.0659 6.11322 25.3424 9.30364C22.636 6.09141 18.6053 4.2544 14.3713 4.3037C6.43424 4.3037 0 10.651 0 18.4808C0 31.8987 23.7385 44.9998 24.7009 45.5062C25.0892 45.7621 25.5956 45.7621 25.984 45.5062C26.9465 44.9998 50.6849 32.0885 50.6849 18.4808C50.6849 10.651 44.2506 4.3037 36.3135 4.3037ZM25.3424 42.9745C21.6212 40.8227 2.56633 29.367 2.56633 18.4808C2.56633 12.0492 7.85163 6.83523 14.3715 6.83523C18.364 6.7835 22.1004 8.77013 24.2518 12.0884C24.6886 12.6826 25.5312 12.815 26.1335 12.3839C26.2486 12.3016 26.3498 12.2019 26.4331 12.0884C30.0012 6.70536 37.3173 5.19495 42.774 8.71477C46.1145 10.8695 48.1251 14.5434 48.1185 18.4807C48.1186 29.4935 29.0636 40.8859 25.3424 42.9745Z" fill="#6C757D"/>
</g>
<defs>
<clipPath id="clip0">
<rect width="50.6849" height="50" fill="white"/>
</clipPath>
</defs>
</svg>
