<svg width="51" height="50" viewBox="0 0 51 50" fill="none" xmlns="http://www.w3.org/2000/svg">
<g clip-path="url(#clip0)">
<path d="M11.3487 48.9884C10.7932 48.9884 10.2415 48.8175 9.77071 48.4818C8.89372 47.855 8.48404 46.7777 8.72273 45.7382L11.9847 31.5689L0.922235 22.0021C0.109072 21.3021 -0.201571 20.1935 0.132283 19.1792C0.466136 18.1667 1.37447 17.4499 2.44992 17.3519L17.0869 16.0415L22.8738 2.68707C23.3005 1.7059 24.2723 1.07227 25.352 1.07227C26.4317 1.07227 27.4034 1.7059 27.8301 2.68478L33.6171 16.0415L48.2517 17.3519C49.3295 17.4477 50.2378 18.1667 50.5717 19.1792C50.9055 20.1916 50.5968 21.3021 49.7836 22.0021L38.7212 31.567L41.9831 45.7359C42.2222 46.7777 41.8122 47.855 40.9355 48.4799C40.0609 49.1047 38.8945 49.1528 37.9734 48.6069L25.352 41.1692L12.7305 48.6111C12.3038 48.861 11.8284 48.9884 11.3487 48.9884V48.9884ZM25.352 37.9651C25.8317 37.9651 26.3067 38.0922 26.7338 38.3421L38.6454 45.3674L35.5668 31.9938C35.3471 31.0421 35.6747 30.0483 36.4206 29.4044L46.866 20.3709L33.0465 19.1334C32.0515 19.0438 31.1958 18.4269 30.807 17.5228L25.352 4.92025L19.8904 17.5247C19.5059 18.4227 18.6501 19.0396 17.6575 19.1292L3.83601 20.3667L14.281 29.4002C15.0292 30.046 15.3565 31.0379 15.1348 31.9919L12.0586 45.3651L23.9701 38.3421C24.3968 38.0922 24.8723 37.9651 25.352 37.9651V37.9651ZM16.9751 16.2998C16.9751 16.2998 16.9751 16.3021 16.9727 16.304L16.9751 16.2998ZM33.7246 16.2937L33.7269 16.2979C33.7269 16.2956 33.7269 16.2956 33.7246 16.2937Z" fill="#6C757D"/>
</g>
<defs>
<clipPath id="clip0">
<rect width="50.7042" height="50" fill="white"/>
</clipPath>
</defs>
</svg>
