<svg width="50" height="50" viewBox="0 0 50 50" fill="none" xmlns="http://www.w3.org/2000/svg">
<path d="M41.4062 6.25H32.8125V4.6875C32.8125 2.10283 30.7097 0 28.125 0H21.875C19.2903 0 17.1875 2.10283 17.1875 4.6875V6.25H8.59375C6.43984 6.25 4.6875 8.00234 4.6875 10.1562V15.625C4.6875 16.4879 5.38711 17.1875 6.25 17.1875H7.10391L8.45381 45.5354C8.57305 48.039 10.6297 50 13.1359 50H36.8641C39.3704 50 41.4271 48.039 41.5462 45.5354L42.8961 17.1875H43.75C44.6129 17.1875 45.3125 16.4879 45.3125 15.625V10.1562C45.3125 8.00234 43.5602 6.25 41.4062 6.25ZM20.3125 4.6875C20.3125 3.82598 21.0135 3.125 21.875 3.125H28.125C28.9865 3.125 29.6875 3.82598 29.6875 4.6875V6.25H20.3125V4.6875ZM7.8125 10.1562C7.8125 9.72549 8.16299 9.375 8.59375 9.375H41.4062C41.837 9.375 42.1875 9.72549 42.1875 10.1562V14.0625C41.706 14.0625 9.80791 14.0625 7.8125 14.0625V10.1562ZM38.4247 45.3868C38.385 46.2213 37.6994 46.875 36.8641 46.875H13.1359C12.3005 46.875 11.6149 46.2213 11.5753 45.3868L10.2324 17.1875H39.7676L38.4247 45.3868Z" fill="#6C757D"/>
<path d="M25 43.75C25.8629 43.75 26.5625 43.0504 26.5625 42.1875V21.875C26.5625 21.0121 25.8629 20.3125 25 20.3125C24.1371 20.3125 23.4375 21.0121 23.4375 21.875V42.1875C23.4375 43.0504 24.137 43.75 25 43.75Z" fill="#6C757D"/>
<path d="M32.8125 43.75C33.6754 43.75 34.375 43.0504 34.375 42.1875V21.875C34.375 21.0121 33.6754 20.3125 32.8125 20.3125C31.9496 20.3125 31.25 21.0121 31.25 21.875V42.1875C31.25 43.0504 31.9495 43.75 32.8125 43.75Z" fill="#6C757D"/>
<path d="M17.1875 43.75C18.0504 43.75 18.75 43.0504 18.75 42.1875V21.875C18.75 21.0121 18.0504 20.3125 17.1875 20.3125C16.3246 20.3125 15.625 21.0121 15.625 21.875V42.1875C15.625 43.0504 16.3245 43.75 17.1875 43.75Z" fill="#6C757D"/>
</svg>
