<svg width="50" height="50" viewBox="0 0 50 50" fill="none" xmlns="http://www.w3.org/2000/svg">
<g clip-path="url(#clip0)">
<path d="M48.4435 6.08386L43.9127 1.55262C41.8425 -0.517589 38.4743 -0.517492 36.4041 1.55262C34.455 3.50193 4.68397 33.2752 2.69442 35.2649C2.48251 35.4768 2.34051 35.7584 2.28993 36.0339L0.0245034 48.2683C-0.0632894 48.7426 0.0878821 49.2298 0.428995 49.5709C0.770498 49.9124 1.2578 50.0633 1.73153 49.9755L13.9648 47.7098C14.2475 47.657 14.5255 47.5137 14.7338 47.3052L48.4435 13.5929C50.5185 11.5179 50.5188 8.15915 48.4435 6.08386ZM3.29305 46.7065L4.66346 39.3058L10.6933 45.336L3.29305 46.7065ZM13.6981 44.1977L5.80174 36.3008L34.6308 7.4695L42.5272 15.3665L13.6981 44.1977ZM46.372 11.5214L44.5986 13.2949L36.7023 5.39793L38.4756 3.62439C39.4034 2.69647 40.9131 2.69637 41.8411 3.62439L46.372 8.15564C47.3021 9.08581 47.3021 10.5911 46.372 11.5214Z" fill="#6C757D"/>
</g>
<defs>
<clipPath id="clip0">
<rect width="50" height="50" fill="white"/>
</clipPath>
</defs>
</svg>
