<svg width="25" height="25" viewBox="0 0 25 25" fill="none" xmlns="http://www.w3.org/2000/svg">
<g clip-path="url(#clip0)">
<path d="M20.6607 3.90616C18.3748 1.62025 15.3355 0.361328 12.1028 0.361328C8.87001 0.361328 5.8307 1.62025 3.54484 3.90616C1.25888 6.19203 0 9.23133 0 12.4641C0 15.6969 1.25888 18.7362 3.54484 21.022C5.8307 23.3079 8.87001 24.5669 12.1028 24.5669C15.3355 24.5669 18.3748 23.3079 20.6607 21.022C22.9467 18.7362 24.2055 15.6969 24.2055 12.4641C24.2055 9.23133 22.9467 6.19203 20.6607 3.90616ZM12.1028 23.1261C6.22376 23.1261 1.4408 18.3431 1.4408 12.4641C1.4408 6.58508 6.22376 1.80213 12.1028 1.80213C17.9818 1.80213 22.7647 6.58508 22.7647 12.4641C22.7647 18.3431 17.9818 23.1261 12.1028 23.1261Z" fill="#6C757D"/>
<path d="M9.48409 9.26859C8.3044 8.08881 6.38484 8.0889 5.20515 9.26859C4.92381 9.54989 4.92381 10.0061 5.20515 10.2874C5.48654 10.5687 5.94271 10.5687 6.224 10.2874C6.842 9.66945 7.84748 9.6695 8.46538 10.2874C8.60607 10.4281 8.7904 10.4984 8.97474 10.4984C9.15907 10.4984 9.34349 10.4281 9.48409 10.2874C9.76543 10.0061 9.76543 9.54993 9.48409 9.26859Z" fill="#6C757D"/>
<path d="M18.9997 9.26859C17.82 8.0889 15.9005 8.08881 14.7208 9.26859C14.4394 9.54989 14.4394 10.0061 14.7208 10.2874C15.0022 10.5687 15.4583 10.5687 15.7396 10.2874C16.3575 9.66945 17.363 9.6694 17.981 10.2874C18.1217 10.4281 18.306 10.4984 18.4904 10.4984C18.6747 10.4984 18.8591 10.4281 18.9997 10.2874C19.2811 10.0061 19.2811 9.54993 18.9997 9.26859Z" fill="#6C757D"/>
<path d="M18.4897 12.9922H5.71454C5.31666 12.9922 4.99414 13.3148 4.99414 13.7126C4.99414 17.6319 8.18279 20.8206 12.1021 20.8206C16.0214 20.8206 19.2101 17.6319 19.2101 13.7126C19.2101 13.3147 18.8876 12.9922 18.4897 12.9922ZM12.1021 19.3798C9.22117 19.3798 6.83542 17.2191 6.48051 14.433H17.7237C17.3688 17.2191 14.983 19.3798 12.1021 19.3798Z" fill="#6C757D"/>
</g>
<defs>
<clipPath id="clip0">
<rect width="24.2055" height="24.2055" fill="white" transform="translate(0 0.361328)"/>
</clipPath>
</defs>
</svg>
