<svg width="30" height="30" viewBox="0 0 30 30" fill="none" xmlns="http://www.w3.org/2000/svg">
<g clip-path="url(#clip0)">
<path d="M25.2141 6.76409H21.5242C21.2598 6.76409 21.0249 6.59556 20.9412 6.34344L20.5526 5.17744C20.1331 3.9192 18.961 3.07422 17.6351 3.07422H11.8838C10.5579 3.07422 9.38576 3.9192 8.96759 5.17623L8.57894 6.34344C8.49408 6.59556 8.25914 6.76409 7.99474 6.76409H4.30487C1.93101 6.76409 0 8.69516 0 11.069V22.1386C0 24.5124 1.93101 26.4434 4.30487 26.4434H25.2141C27.5879 26.4434 29.5189 24.5124 29.5189 22.1386V11.069C29.5189 8.69516 27.5879 6.76409 25.2141 6.76409ZM28.289 22.1386C28.289 23.8334 26.909 25.2134 25.2141 25.2134H4.30487C2.61001 25.2134 1.22999 23.8334 1.22999 22.1386V11.069C1.22999 9.37409 2.61001 7.99408 4.30487 7.99408H7.99474C8.78927 7.99408 9.49282 7.48736 9.74494 6.73336L10.1349 5.56488C10.3858 4.81094 11.0893 4.30416 11.8839 4.30416H17.6352C18.4297 4.30416 19.1332 4.81088 19.3854 5.56609L19.774 6.7333C20.0261 7.48724 20.7297 7.99402 21.5242 7.99402H25.2141C26.9089 7.99402 28.289 9.37403 28.289 11.0689V22.1386H28.289Z" fill="#6C757D"/>
<path d="M14.7586 9.22461C10.6887 9.22461 7.37891 12.5344 7.37891 16.6043C7.37891 20.6743 10.6887 23.9841 14.7586 23.9841C18.8286 23.9841 22.1384 20.6743 22.1384 16.6043C22.1384 12.5344 18.8286 9.22461 14.7586 9.22461ZM14.7586 22.7541C11.3677 22.7541 8.60884 19.9953 8.60884 16.6043C8.60884 13.2134 11.3677 10.4545 14.7586 10.4545C18.1496 10.4545 20.9084 13.2134 20.9084 16.6043C20.9084 19.9953 18.1496 22.7541 14.7586 22.7541Z" fill="#6C757D"/>
<path d="M14.7596 11.6846C12.0464 11.6846 9.83984 13.8911 9.83984 16.6044C9.83984 16.9438 10.1154 17.2194 10.4548 17.2194C10.7943 17.2194 11.0698 16.9438 11.0698 16.6044C11.0698 14.57 12.7253 12.9145 14.7596 12.9145C15.0991 12.9145 15.3746 12.639 15.3746 12.2995C15.3746 11.96 15.0991 11.6846 14.7596 11.6846Z" fill="#6C757D"/>
</g>
<defs>
<clipPath id="clip0">
<rect width="29.5189" height="29.5189" fill="white"/>
</clipPath>
</defs>
</svg>
